<mxfile host="app.diagrams.net" agent="Mozilla/5.0 (Windows NT 10.0; Win64; x64) AppleWebKit/537.36 (KHTML, like Gecko) Chrome/137.0.0.0 Safari/537.36" version="27.2.0">
  <diagram name="PÃ¡gina-1" id="FOE8npgmMcwkiNzP_g9T">
    <mxGraphModel dx="3002" dy="1169" grid="1" gridSize="10" guides="1" tooltips="1" connect="1" arrows="1" fold="1" page="1" pageScale="1" pageWidth="827" pageHeight="1169" math="0" shadow="0">
      <root>
        <mxCell id="0" />
        <mxCell id="1" parent="0" />
        <mxCell id="9iBlPdd9ZqKX-gA7t0ej-3" value="" style="edgeStyle=orthogonalEdgeStyle;rounded=0;orthogonalLoop=1;jettySize=auto;html=1;" edge="1" parent="1" source="9iBlPdd9ZqKX-gA7t0ej-1" target="9iBlPdd9ZqKX-gA7t0ej-2">
          <mxGeometry relative="1" as="geometry" />
        </mxCell>
        <mxCell id="9iBlPdd9ZqKX-gA7t0ej-5" value="" style="edgeStyle=orthogonalEdgeStyle;rounded=0;orthogonalLoop=1;jettySize=auto;html=1;entryX=0;entryY=0.5;entryDx=0;entryDy=0;exitX=1;exitY=0.5;exitDx=0;exitDy=0;" edge="1" parent="1" source="9iBlPdd9ZqKX-gA7t0ej-4" target="9iBlPdd9ZqKX-gA7t0ej-1">
          <mxGeometry relative="1" as="geometry">
            <mxPoint x="-90" y="240" as="sourcePoint" />
          </mxGeometry>
        </mxCell>
        <mxCell id="9iBlPdd9ZqKX-gA7t0ej-1" value="DOCUMENTS" style="rounded=0;whiteSpace=wrap;html=1;" vertex="1" parent="1">
          <mxGeometry x="-100" y="120" width="120" height="60" as="geometry" />
        </mxCell>
        <mxCell id="9iBlPdd9ZqKX-gA7t0ej-7" value="" style="edgeStyle=orthogonalEdgeStyle;rounded=0;orthogonalLoop=1;jettySize=auto;html=1;" edge="1" parent="1" source="9iBlPdd9ZqKX-gA7t0ej-2" target="9iBlPdd9ZqKX-gA7t0ej-6">
          <mxGeometry relative="1" as="geometry" />
        </mxCell>
        <mxCell id="9iBlPdd9ZqKX-gA7t0ej-8" value="" style="edgeStyle=orthogonalEdgeStyle;rounded=0;orthogonalLoop=1;jettySize=auto;html=1;" edge="1" parent="1" source="9iBlPdd9ZqKX-gA7t0ej-2" target="9iBlPdd9ZqKX-gA7t0ej-6">
          <mxGeometry relative="1" as="geometry" />
        </mxCell>
        <mxCell id="9iBlPdd9ZqKX-gA7t0ej-2" value="IEEtec" style="rounded=0;whiteSpace=wrap;html=1;" vertex="1" parent="1">
          <mxGeometry x="50" y="120" width="120" height="60" as="geometry" />
        </mxCell>
        <mxCell id="9iBlPdd9ZqKX-gA7t0ej-4" value="C / USERS / YOURUSER" style="rounded=0;whiteSpace=wrap;html=1;" vertex="1" parent="1">
          <mxGeometry x="-290" y="120" width="160" height="60" as="geometry" />
        </mxCell>
        <mxCell id="9iBlPdd9ZqKX-gA7t0ej-6" value="Instaladores" style="rounded=0;whiteSpace=wrap;html=1;" vertex="1" parent="1">
          <mxGeometry x="250" y="120" width="120" height="60" as="geometry" />
        </mxCell>
        <mxCell id="9iBlPdd9ZqKX-gA7t0ej-9" value="" style="edgeStyle=orthogonalEdgeStyle;rounded=0;orthogonalLoop=1;jettySize=auto;html=1;exitX=1;exitY=0.5;exitDx=0;exitDy=0;entryX=0;entryY=0.5;entryDx=0;entryDy=0;" edge="1" parent="1" target="9iBlPdd9ZqKX-gA7t0ej-10" source="9iBlPdd9ZqKX-gA7t0ej-2">
          <mxGeometry relative="1" as="geometry">
            <mxPoint x="170" y="220" as="sourcePoint" />
          </mxGeometry>
        </mxCell>
        <mxCell id="9iBlPdd9ZqKX-gA7t0ej-10" value="Maquinas Virtuales" style="rounded=0;whiteSpace=wrap;html=1;" vertex="1" parent="1">
          <mxGeometry x="250" y="190" width="120" height="60" as="geometry" />
        </mxCell>
        <mxCell id="9iBlPdd9ZqKX-gA7t0ej-11" value="" style="edgeStyle=orthogonalEdgeStyle;rounded=0;orthogonalLoop=1;jettySize=auto;html=1;exitX=1;exitY=0.5;exitDx=0;exitDy=0;entryX=0;entryY=0.5;entryDx=0;entryDy=0;" edge="1" parent="1" target="9iBlPdd9ZqKX-gA7t0ej-12" source="9iBlPdd9ZqKX-gA7t0ej-2">
          <mxGeometry relative="1" as="geometry">
            <mxPoint x="170" y="290" as="sourcePoint" />
          </mxGeometry>
        </mxCell>
        <mxCell id="9iBlPdd9ZqKX-gA7t0ej-12" value="Softether" style="rounded=0;whiteSpace=wrap;html=1;" vertex="1" parent="1">
          <mxGeometry x="250" y="260" width="120" height="60" as="geometry" />
        </mxCell>
        <mxCell id="9iBlPdd9ZqKX-gA7t0ej-13" value="" style="edgeStyle=orthogonalEdgeStyle;rounded=0;orthogonalLoop=1;jettySize=auto;html=1;exitX=1;exitY=0.5;exitDx=0;exitDy=0;entryX=0;entryY=0.5;entryDx=0;entryDy=0;" edge="1" parent="1" target="9iBlPdd9ZqKX-gA7t0ej-14" source="9iBlPdd9ZqKX-gA7t0ej-2">
          <mxGeometry relative="1" as="geometry">
            <mxPoint x="170" y="360" as="sourcePoint" />
          </mxGeometry>
        </mxCell>
        <mxCell id="9iBlPdd9ZqKX-gA7t0ej-16" value="" style="edgeStyle=orthogonalEdgeStyle;rounded=0;orthogonalLoop=1;jettySize=auto;html=1;" edge="1" parent="1" source="9iBlPdd9ZqKX-gA7t0ej-14" target="9iBlPdd9ZqKX-gA7t0ej-15">
          <mxGeometry relative="1" as="geometry" />
        </mxCell>
        <mxCell id="9iBlPdd9ZqKX-gA7t0ej-14" value="Worspace" style="rounded=0;whiteSpace=wrap;html=1;" vertex="1" parent="1">
          <mxGeometry x="250" y="460" width="120" height="60" as="geometry" />
        </mxCell>
        <mxCell id="9iBlPdd9ZqKX-gA7t0ej-23" value="" style="edgeStyle=orthogonalEdgeStyle;rounded=0;orthogonalLoop=1;jettySize=auto;html=1;" edge="1" parent="1" source="9iBlPdd9ZqKX-gA7t0ej-15" target="9iBlPdd9ZqKX-gA7t0ej-22">
          <mxGeometry relative="1" as="geometry" />
        </mxCell>
        <mxCell id="9iBlPdd9ZqKX-gA7t0ej-15" value="Software" style="rounded=0;whiteSpace=wrap;html=1;" vertex="1" parent="1">
          <mxGeometry x="414" y="460" width="120" height="60" as="geometry" />
        </mxCell>
        <mxCell id="9iBlPdd9ZqKX-gA7t0ej-17" value="" style="edgeStyle=orthogonalEdgeStyle;rounded=0;orthogonalLoop=1;jettySize=auto;html=1;exitX=1;exitY=0.5;exitDx=0;exitDy=0;entryX=0;entryY=0.5;entryDx=0;entryDy=0;" edge="1" parent="1" target="9iBlPdd9ZqKX-gA7t0ej-18" source="9iBlPdd9ZqKX-gA7t0ej-14">
          <mxGeometry relative="1" as="geometry">
            <mxPoint x="330" y="340" as="sourcePoint" />
          </mxGeometry>
        </mxCell>
        <mxCell id="9iBlPdd9ZqKX-gA7t0ej-25" value="" style="edgeStyle=orthogonalEdgeStyle;rounded=0;orthogonalLoop=1;jettySize=auto;html=1;" edge="1" parent="1" source="9iBlPdd9ZqKX-gA7t0ej-18" target="9iBlPdd9ZqKX-gA7t0ej-24">
          <mxGeometry relative="1" as="geometry" />
        </mxCell>
        <mxCell id="9iBlPdd9ZqKX-gA7t0ej-18" value="Electrical Schematics&lt;div&gt;Esquemas electricos&lt;/div&gt;" style="rounded=0;whiteSpace=wrap;html=1;" vertex="1" parent="1">
          <mxGeometry x="414" y="530" width="120" height="60" as="geometry" />
        </mxCell>
        <mxCell id="9iBlPdd9ZqKX-gA7t0ej-19" value="" style="edgeStyle=orthogonalEdgeStyle;rounded=0;orthogonalLoop=1;jettySize=auto;html=1;exitX=1;exitY=0.5;exitDx=0;exitDy=0;entryX=0;entryY=0.5;entryDx=0;entryDy=0;" edge="1" parent="1" target="9iBlPdd9ZqKX-gA7t0ej-20" source="9iBlPdd9ZqKX-gA7t0ej-14">
          <mxGeometry relative="1" as="geometry">
            <mxPoint x="370" y="560" as="sourcePoint" />
          </mxGeometry>
        </mxCell>
        <mxCell id="9iBlPdd9ZqKX-gA7t0ej-27" value="" style="edgeStyle=orthogonalEdgeStyle;rounded=0;orthogonalLoop=1;jettySize=auto;html=1;" edge="1" parent="1" source="9iBlPdd9ZqKX-gA7t0ej-20" target="9iBlPdd9ZqKX-gA7t0ej-26">
          <mxGeometry relative="1" as="geometry" />
        </mxCell>
        <mxCell id="9iBlPdd9ZqKX-gA7t0ej-20" value="Subir al servidor&lt;div&gt;Upload to server&lt;/div&gt;" style="rounded=0;whiteSpace=wrap;html=1;" vertex="1" parent="1">
          <mxGeometry x="414" y="600" width="120" height="60" as="geometry" />
        </mxCell>
        <mxCell id="9iBlPdd9ZqKX-gA7t0ej-22" value="TIA PORTAL FOLDERS&lt;div&gt;GIT REPOS&lt;/div&gt;&lt;div&gt;ETC&lt;/div&gt;" style="rounded=0;whiteSpace=wrap;html=1;" vertex="1" parent="1">
          <mxGeometry x="614" y="460" width="176" height="60" as="geometry" />
        </mxCell>
        <mxCell id="9iBlPdd9ZqKX-gA7t0ej-24" value="EPLAN" style="rounded=0;whiteSpace=wrap;html=1;" vertex="1" parent="1">
          <mxGeometry x="614" y="530" width="120" height="60" as="geometry" />
        </mxCell>
        <mxCell id="9iBlPdd9ZqKX-gA7t0ej-26" value="TODOS LOS FICHEROS" style="rounded=0;whiteSpace=wrap;html=1;" vertex="1" parent="1">
          <mxGeometry x="614" y="600" width="120" height="60" as="geometry" />
        </mxCell>
        <mxCell id="9iBlPdd9ZqKX-gA7t0ej-30" style="edgeStyle=orthogonalEdgeStyle;rounded=0;orthogonalLoop=1;jettySize=auto;html=1;exitX=0.5;exitY=1;exitDx=0;exitDy=0;entryX=1;entryY=0.25;entryDx=0;entryDy=0;strokeColor=default;curved=1;" edge="1" parent="1" source="9iBlPdd9ZqKX-gA7t0ej-29" target="9iBlPdd9ZqKX-gA7t0ej-15">
          <mxGeometry relative="1" as="geometry">
            <Array as="points">
              <mxPoint x="600" y="475" />
            </Array>
          </mxGeometry>
        </mxCell>
        <mxCell id="9iBlPdd9ZqKX-gA7t0ej-29" value="COPIAS LOCALES PARA TRABAJO" style="rounded=1;whiteSpace=wrap;html=1;" vertex="1" parent="1">
          <mxGeometry x="540" y="350" width="120" height="60" as="geometry" />
        </mxCell>
        <mxCell id="9iBlPdd9ZqKX-gA7t0ej-34" style="edgeStyle=orthogonalEdgeStyle;rounded=0;orthogonalLoop=1;jettySize=auto;html=1;exitX=0.5;exitY=1;exitDx=0;exitDy=0;strokeColor=default;curved=1;" edge="1" parent="1" source="9iBlPdd9ZqKX-gA7t0ej-29">
          <mxGeometry relative="1" as="geometry">
            <mxPoint x="600" y="430" as="sourcePoint" />
            <mxPoint x="534" y="545" as="targetPoint" />
            <Array as="points">
              <mxPoint x="600" y="545" />
            </Array>
          </mxGeometry>
        </mxCell>
        <mxCell id="9iBlPdd9ZqKX-gA7t0ej-35" value="VERSIONES NUEVAS PARA SUBIR AL SERVIDOR" style="rounded=1;whiteSpace=wrap;html=1;" vertex="1" parent="1">
          <mxGeometry x="500" y="710" width="140" height="60" as="geometry" />
        </mxCell>
        <mxCell id="9iBlPdd9ZqKX-gA7t0ej-36" value="" style="curved=1;endArrow=classic;html=1;rounded=0;exitX=0;exitY=0;exitDx=0;exitDy=0;entryX=0.5;entryY=1;entryDx=0;entryDy=0;" edge="1" parent="1" source="9iBlPdd9ZqKX-gA7t0ej-35" target="9iBlPdd9ZqKX-gA7t0ej-20">
          <mxGeometry width="50" height="50" relative="1" as="geometry">
            <mxPoint x="300" y="610" as="sourcePoint" />
            <mxPoint x="350" y="560" as="targetPoint" />
            <Array as="points">
              <mxPoint x="470" y="710" />
            </Array>
          </mxGeometry>
        </mxCell>
        <mxCell id="9iBlPdd9ZqKX-gA7t0ej-37" value="" style="edgeStyle=orthogonalEdgeStyle;rounded=0;orthogonalLoop=1;jettySize=auto;html=1;" edge="1" parent="1" target="9iBlPdd9ZqKX-gA7t0ej-38">
          <mxGeometry relative="1" as="geometry">
            <mxPoint x="370" y="290" as="sourcePoint" />
          </mxGeometry>
        </mxCell>
        <mxCell id="9iBlPdd9ZqKX-gA7t0ej-38" value="CABLE PUBLICA PC/USUARIO&lt;div&gt;CABLE PRIVADA PC/USUARIO&lt;/div&gt;" style="rounded=0;whiteSpace=wrap;html=1;" vertex="1" parent="1">
          <mxGeometry x="410" y="260" width="180" height="60" as="geometry" />
        </mxCell>
        <mxCell id="9iBlPdd9ZqKX-gA7t0ej-40" value="&lt;span style=&quot;font-weight: 400;&quot;&gt;CUANDO HAY QUE TRABAJAR CON UN PROYECTO DE&amp;nbsp;&lt;/span&gt;&lt;div&gt;&lt;span style=&quot;font-weight: 400;&quot;&gt;TIA (U OTROS) O DE EPLAN&lt;/span&gt;&lt;/div&gt;" style="swimlane;whiteSpace=wrap;html=1;startSize=50;" vertex="1" parent="1">
          <mxGeometry x="-780" y="820" width="480" height="320" as="geometry" />
        </mxCell>
        <mxCell id="9iBlPdd9ZqKX-gA7t0ej-117" value="1" style="shape=partialRectangle;html=1;whiteSpace=wrap;connectable=0;fillColor=none;top=0;left=0;bottom=0;right=0;overflow=hidden;pointerEvents=1;strokeColor=inherit;fontSize=16;" vertex="1" parent="9iBlPdd9ZqKX-gA7t0ej-40">
          <mxGeometry y="60" width="40" height="40" as="geometry">
            <mxRectangle width="40" height="30" as="alternateBounds" />
          </mxGeometry>
        </mxCell>
        <mxCell id="9iBlPdd9ZqKX-gA7t0ej-118" value="2" style="shape=partialRectangle;html=1;whiteSpace=wrap;connectable=0;fillColor=none;top=0;left=0;bottom=0;right=0;overflow=hidden;strokeColor=inherit;fontSize=16;" vertex="1" parent="9iBlPdd9ZqKX-gA7t0ej-40">
          <mxGeometry y="115" width="40" height="40" as="geometry">
            <mxRectangle width="40" height="30" as="alternateBounds" />
          </mxGeometry>
        </mxCell>
        <mxCell id="9iBlPdd9ZqKX-gA7t0ej-116" value="COPIAR ULTIMA VERSION DEL SERVIDOR AL WORKSPACE (SOFTWARE O SCHEMATICS)" style="text;strokeColor=none;fillColor=none;align=left;verticalAlign=middle;spacingLeft=4;spacingRight=4;overflow=hidden;points=[[0,0.5],[1,0.5]];portConstraint=eastwest;rotatable=0;whiteSpace=wrap;html=1;" vertex="1" parent="9iBlPdd9ZqKX-gA7t0ej-40">
          <mxGeometry x="40" y="60" width="440" height="50" as="geometry" />
        </mxCell>
        <mxCell id="9iBlPdd9ZqKX-gA7t0ej-120" value="MODIFICAR EL FICHERO SEGUN SE NECESITE" style="text;strokeColor=none;fillColor=none;align=left;verticalAlign=middle;spacingLeft=4;spacingRight=4;overflow=hidden;points=[[0,0.5],[1,0.5]];portConstraint=eastwest;rotatable=0;whiteSpace=wrap;html=1;" vertex="1" parent="9iBlPdd9ZqKX-gA7t0ej-40">
          <mxGeometry x="40" y="110" width="440" height="50" as="geometry" />
        </mxCell>
        <mxCell id="9iBlPdd9ZqKX-gA7t0ej-119" value="3" style="shape=partialRectangle;html=1;whiteSpace=wrap;connectable=0;fillColor=none;top=0;left=0;bottom=0;right=0;overflow=hidden;strokeColor=inherit;fontSize=16;" vertex="1" parent="9iBlPdd9ZqKX-gA7t0ej-40">
          <mxGeometry y="165" width="40" height="40" as="geometry">
            <mxRectangle width="40" height="30" as="alternateBounds" />
          </mxGeometry>
        </mxCell>
        <mxCell id="9iBlPdd9ZqKX-gA7t0ej-121" value="AL TERMINAR, HACER UN GUARDAR COMO, CON UN NUEVO NUMERO DE VERSIÃN (EJ proyecto TIA llamado pepito-v3, guardar como pepito-v4).&lt;div&gt;AÃADIR FECHA DE VERSION AL FINAL SI ES CONVENIENTE&lt;/div&gt;" style="text;strokeColor=none;fillColor=none;align=left;verticalAlign=middle;spacingLeft=4;spacingRight=4;overflow=hidden;points=[[0,0.5],[1,0.5]];portConstraint=eastwest;rotatable=0;whiteSpace=wrap;html=1;" vertex="1" parent="9iBlPdd9ZqKX-gA7t0ej-40">
          <mxGeometry x="40" y="160" width="440" height="50" as="geometry" />
        </mxCell>
        <mxCell id="9iBlPdd9ZqKX-gA7t0ej-123" value="MOVER EL FICHERO DE LA CARPETA DE TRABAJO A &quot;UPLOAD TO SERVER&quot;" style="text;strokeColor=none;fillColor=none;align=left;verticalAlign=middle;spacingLeft=4;spacingRight=4;overflow=hidden;points=[[0,0.5],[1,0.5]];portConstraint=eastwest;rotatable=0;whiteSpace=wrap;html=1;" vertex="1" parent="9iBlPdd9ZqKX-gA7t0ej-40">
          <mxGeometry x="40" y="210" width="440" height="50" as="geometry" />
        </mxCell>
        <mxCell id="9iBlPdd9ZqKX-gA7t0ej-122" value="4" style="shape=partialRectangle;html=1;whiteSpace=wrap;connectable=0;fillColor=none;top=0;left=0;bottom=0;right=0;overflow=hidden;strokeColor=inherit;fontSize=16;" vertex="1" parent="9iBlPdd9ZqKX-gA7t0ej-40">
          <mxGeometry y="215" width="40" height="40" as="geometry">
            <mxRectangle width="40" height="30" as="alternateBounds" />
          </mxGeometry>
        </mxCell>
        <mxCell id="9iBlPdd9ZqKX-gA7t0ej-124" value="SUBIR FICHEROS DESDE UPLOAD TO SERVER LO ANTES POSIBLE&lt;div&gt;UNA VEZ SUBIDOR, ELIMINAR LA VERSION LOCAL&lt;/div&gt;" style="text;strokeColor=none;fillColor=none;align=left;verticalAlign=middle;spacingLeft=4;spacingRight=4;overflow=hidden;points=[[0,0.5],[1,0.5]];portConstraint=eastwest;rotatable=0;whiteSpace=wrap;html=1;" vertex="1" parent="9iBlPdd9ZqKX-gA7t0ej-40">
          <mxGeometry x="40" y="260" width="440" height="40" as="geometry" />
        </mxCell>
        <mxCell id="9iBlPdd9ZqKX-gA7t0ej-125" value="5" style="shape=partialRectangle;html=1;whiteSpace=wrap;connectable=0;fillColor=none;top=0;left=0;bottom=0;right=0;overflow=hidden;strokeColor=inherit;fontSize=16;" vertex="1" parent="9iBlPdd9ZqKX-gA7t0ej-40">
          <mxGeometry y="260" width="40" height="40" as="geometry">
            <mxRectangle width="40" height="30" as="alternateBounds" />
          </mxGeometry>
        </mxCell>
        <mxCell id="9iBlPdd9ZqKX-gA7t0ej-127" value="SIEMPRE QUE SE MUEVA UN FICHERO DEL SERVIDOR A LOCAL Y DE NUEVO AL SERVIDOR, SE DEBE AUMENTAR EL NÃMERO DE VERSIÃN&lt;div&gt;&lt;br&gt;&lt;/div&gt;&lt;div&gt;EN CASO DE QUE HAYAN MULTIPLES PERSONAS TRABAJANDO&lt;/div&gt;&lt;div&gt;&lt;br&gt;&lt;/div&gt;&lt;div&gt;CREAR UN FICHERO DE TXT DENTRO DE LA CARPETA DEL SERVIDOR CON EL NOMBRE DE QUIEN TIENE EL FICHERO EN LOCAL&lt;/div&gt;" style="shape=process;whiteSpace=wrap;html=1;backgroundOutline=1;" vertex="1" parent="1">
          <mxGeometry x="-780" y="550" width="480" height="240" as="geometry" />
        </mxCell>
        <mxCell id="9iBlPdd9ZqKX-gA7t0ej-128" value="" style="edgeStyle=orthogonalEdgeStyle;rounded=0;orthogonalLoop=1;jettySize=auto;html=1;" edge="1" parent="1" target="9iBlPdd9ZqKX-gA7t0ej-129">
          <mxGeometry relative="1" as="geometry">
            <mxPoint x="370" y="150" as="sourcePoint" />
          </mxGeometry>
        </mxCell>
        <mxCell id="9iBlPdd9ZqKX-gA7t0ej-129" value="PROGRAMAS, DRIVERS, HERRAMIENTAS, ETC&lt;div&gt;TIA, WORD, ETC&lt;/div&gt;" style="rounded=0;whiteSpace=wrap;html=1;" vertex="1" parent="1">
          <mxGeometry x="410" y="120" width="180" height="60" as="geometry" />
        </mxCell>
        <mxCell id="9iBlPdd9ZqKX-gA7t0ej-130" value="" style="edgeStyle=orthogonalEdgeStyle;rounded=0;orthogonalLoop=1;jettySize=auto;html=1;" edge="1" parent="1" target="9iBlPdd9ZqKX-gA7t0ej-131">
          <mxGeometry relative="1" as="geometry">
            <mxPoint x="370" y="220" as="sourcePoint" />
          </mxGeometry>
        </mxCell>
        <mxCell id="9iBlPdd9ZqKX-gA7t0ej-131" value="MAQUINAS DE VMWARE O VIRTUALHOST" style="rounded=0;whiteSpace=wrap;html=1;" vertex="1" parent="1">
          <mxGeometry x="410" y="190" width="180" height="60" as="geometry" />
        </mxCell>
      </root>
    </mxGraphModel>
  </diagram>
</mxfile>
